<svg width="319" height="356" viewBox="0 0 319 356" fill="none" xmlns="http://www.w3.org/2000/svg">
<g filter="url(#filter0_b_2710_907)">
<path d="M0 30C0 13.4315 13.4315 0 30 0H289C305.569 0 319 13.4315 319 30V326C319 342.569 305.569 356 289 356H30C13.4315 356 0 342.569 0 326V30Z" fill="#D9D9D9" fill-opacity="0.1"/>
<path d="M0 30C0 13.4314 13.4315 0 30 0H289C305.569 0 319 13.4315 319 30V326C319 342.569 305.569 356 289 356H30C13.4315 356 0 342.569 0 326V30Z" fill="#D9D9D9" fill-opacity="0.1"/>
<path d="M1.5 30C1.5 14.2599 14.2599 1.5 30 1.5H289C304.74 1.5 317.5 14.2599 317.5 30V326C317.5 341.74 304.74 354.5 289 354.5H30C14.2599 354.5 1.5 341.74 1.5 326V30Z" stroke="url(#paint0_linear_2710_907)" stroke-opacity="0.1" stroke-width="3"/>
<path d="M1.5 30C1.5 14.2599 14.2599 1.5 30 1.5H289C304.74 1.5 317.5 14.2599 317.5 30V326C317.5 341.74 304.74 354.5 289 354.5H30C14.2599 354.5 1.5 341.74 1.5 326V30Z" stroke="url(#paint1_linear_2710_907)" stroke-opacity="0.5" stroke-width="3"/>
</g>
<defs>
<filter id="filter0_b_2710_907" x="-35" y="-35" width="389" height="426" filterUnits="userSpaceOnUse" color-interpolation-filters="sRGB">
<feFlood flood-opacity="0" result="BackgroundImageFix"/>
<feGaussianBlur in="BackgroundImageFix" stdDeviation="17.5"/>
<feComposite in2="SourceAlpha" operator="in" result="effect1_backgroundBlur_2710_907"/>
<feBlend mode="normal" in="SourceGraphic" in2="effect1_backgroundBlur_2710_907" result="shape"/>
</filter>
<linearGradient id="paint0_linear_2710_907" x1="204.361" y1="516.613" x2="-167.98" y2="282.195" gradientUnits="userSpaceOnUse">
<stop stop-color="white" stop-opacity="0.25"/>
<stop offset="0.231556" stop-color="white" stop-opacity="0.195537"/>
<stop offset="1" stop-color="white" stop-opacity="0.05"/>
</linearGradient>
<linearGradient id="paint1_linear_2710_907" x1="-7.65886e-06" y1="15.9147" x2="369.751" y2="225.787" gradientUnits="userSpaceOnUse">
<stop stop-color="white" stop-opacity="0.25"/>
<stop offset="1" stop-color="white" stop-opacity="0.05"/>
</linearGradient>
</defs>
</svg>
