<svg width="118" height="53" viewBox="0 0 118 53" fill="none" xmlns="http://www.w3.org/2000/svg">
<path d="M0.5 52L1.58333 50.525C2.66667 49.05 4.83333 46.1 7 45.2222C9.16667 44.3444 11.3333 45.5387 13.5 46.3396C15.6667 47.1404 17.8333 47.5477 20 43.4956C22.1667 39.4434 24.3333 30.9318 26.5 27.4248C28.6667 23.9178 30.8333 25.4153 33 26.0232C35.1667 26.6312 37.3333 26.3496 39.5 24.1754C41.6667 22.0012 43.8333 17.9344 46 17.435C48.1667 16.9357 50.3333 20.0037 52.5 25.2048C54.6667 30.406 56.8333 37.7402 59 37.8822C61.1667 38.0243 63.3333 30.9741 65.5 29.0909C67.6667 27.2076 69.8333 30.4911 72 31.0553C74.1667 31.6194 76.3333 29.4641 78.5 29.596C80.6667 29.728 82.8333 32.1471 85 29.5044C87.1667 26.8616 89.3333 19.157 91.5 17.7435C93.6667 16.3301 95.8333 21.2078 98 25.0621C100.167 28.9164 102.333 31.7472 104.5 33.337C106.667 34.9268 108.833 35.2755 111 29.6792C113.167 24.0828 115.333 12.5414 116.417 6.77071L117.5 1" stroke="#64E76A"/>
</svg>
